name ./resultDataOpenSim/trcMotMarkerGrf/sub06/grf-14-03.mot
datacolumns 19
datarows 27
range 1.08400000 1.18800000
endheader

                time	     ground_force_vx	     ground_force_vy	     ground_force_vz	     ground_force_px	     ground_force_py	     ground_force_pz	   l_ground_force_vx	   l_ground_force_vy	   l_ground_force_vz	   l_ground_force_px	   l_ground_force_py	   l_ground_force_pz	     ground_torque_x	     ground_torque_y	     ground_torque_z	   l_ground_torque_x	   l_ground_torque_y	   l_ground_torque_z	
          1.08400000	          0.00000000	          0.00000000	          0.00000000	          0.00000000	          0.00000000	          0.00000000	        130.35064210	        599.54785696	          1.78035608	          0.10741657	         -0.07500000	         -0.02387971	          0.00000000	          0.00000000	          0.00000000	          0.00000000	         -2.62281794	          0.00000000	
          1.08800000	          0.00000000	          0.00000000	          0.00000000	          0.00000000	          0.00000000	          0.00000000	        134.66809016	        595.04196347	          0.91310702	          0.10806989	         -0.07500000	         -0.02344964	          0.00000000	          0.00000000	          0.00000000	          0.00000000	         -2.61647247	          0.00000000	
          1.09200000	          0.00000000	          0.00000000	          0.00000000	          0.00000000	          0.00000000	          0.00000000	        138.76808855	        589.44087270	          0.02162743	          0.10874846	         -0.07500000	         -0.02304468	          0.00000000	          0.00000000	          0.00000000	          0.00000000	         -2.59887524	          0.00000000	
          1.09600000	          0.00000000	          0.00000000	          0.00000000	          0.00000000	          0.00000000	          0.00000000	        142.61512429	        582.87227448	         -0.88346310	          0.10943727	         -0.07500000	         -0.02264624	          0.00000000	          0.00000000	          0.00000000	          0.00000000	         -2.57186038	          0.00000000	
          1.10000000	          0.00000000	          0.00000000	          0.00000000	          0.00000000	          0.00000000	          0.00000000	        146.19478625	        575.38183784	         -1.75524119	          0.11009316	         -0.07500000	         -0.02224149	          0.00000000	          0.00000000	          0.00000000	          0.00000000	         -2.53639828	          0.00000000	
          1.10400000	          0.00000000	          0.00000000	          0.00000000	          0.00000000	          0.00000000	          0.00000000	        149.48746787	        566.88654505	         -2.55219311	          0.11065572	         -0.07500000	         -0.02183502	          0.00000000	          0.00000000	          0.00000000	          0.00000000	         -2.49289680	          0.00000000	
          1.10800000	          0.00000000	          0.00000000	          0.00000000	          0.00000000	          0.00000000	          0.00000000	        152.45020292	        557.19388027	         -3.26574837	          0.11110040	         -0.07500000	         -0.02142682	          0.00000000	          0.00000000	          0.00000000	          0.00000000	         -2.44169651	          0.00000000	
          1.11200000	          0.00000000	          0.00000000	          0.00000000	          0.00000000	          0.00000000	          0.00000000	        155.00531177	        546.00674573	         -3.91428808	          0.11143750	         -0.07499971	         -0.02102041	          0.00000000	          0.00000000	          0.00000000	          0.00000000	         -2.38354315	          0.00000000	
          1.11600000	          0.00000000	          0.00000000	          0.00000000	          0.00000000	          0.00000000	          0.00000000	        157.02927630	        532.92066971	         -4.52629818	          0.11171393	         -0.07499911	         -0.02062607	          0.00000000	          0.00000000	          0.00000000	          0.00000000	         -2.31989459	          0.00000000	
          1.12000000	          0.00000000	          0.00000000	          0.00000000	          0.00000000	          0.00000000	          0.00000000	        158.34386528	        517.45711079	         -5.13455732	          0.11202027	         -0.07499900	         -0.02023603	          0.00000000	          0.00000000	          0.00000000	          0.00000000	         -2.25291187	          0.00000000	
          1.12400000	          0.00000000	          0.00000000	          0.00000000	          0.00000000	          0.00000000	          0.00000000	        158.71230807	        499.10779472	         -5.77368308	          0.11243321	         -0.07499900	         -0.01983972	          0.00000000	          0.00000000	          0.00000000	          0.00000000	         -2.18502187	          0.00000000	
          1.12800000	          0.00000000	          0.00000000	          0.00000000	          0.00000000	          0.00000000	          0.00000000	        157.84670012	        477.37377613	         -6.46631502	          0.11295902	         -0.07499900	         -0.01944960	          0.00000000	          0.00000000	          0.00000000	          0.00000000	         -2.11811044	          0.00000000	
          1.13200000	         -1.50720188	         16.35413925	          0.84936585	          0.76710221	          0.00000000	          0.06295599	        155.43090866	        451.83003112	         -7.21604214	          0.11356841	         -0.07499832	         -0.01908796	          0.00000000	          0.31049131	          0.00000000	          0.00000000	         -2.05257513	          0.00000000	
          1.13600000	        -20.91620781	        249.12447947	          5.40530941	          0.77639365	          0.00000000	          0.06218766	        151.14936319	        422.24650403	         -8.01453912	          0.11428371	         -0.07499800	         -0.01874262	          0.00000000	          0.68603471	          0.00000000	          0.00000000	         -1.98653480	          0.00000000	
          1.14000000	        -43.35766303	        463.36877228	          9.10085988	          0.78413319	          0.00000000	          0.06159751	        144.73602385	        388.72579301	         -8.82769475	          0.11519487	         -0.07499770	         -0.01835247	          0.00000000	          1.05376807	          0.00000000	          0.00000000	         -1.91552268	          0.00000000	
          1.14400000	        -71.03478437	        642.53436648	         11.01197851	          0.79131395	          0.00000000	          0.06131055	        136.06857930	        351.76763456	         -9.55931418	          0.11640886	         -0.07499722	         -0.01785926	          0.00000000	          1.39613334	          0.00000000	          0.00000000	         -1.83300236	          0.00000000	
          1.14800000	       -104.28787637	        776.07985392	         10.69837800	          0.79783039	          0.00000000	          0.06141727	        125.25652683	        312.29333231	        -10.05970854	          0.11804121	         -0.07499700	         -0.01724564	          0.00000000	          1.69125738	          0.00000000	          0.00000000	         -1.73187522	          0.00000000	
          1.15200000	       -140.92426886	        862.23299182	          8.63762326	          0.80354947	          0.00000000	          0.06170069	        112.63961661	        271.69694474	        -10.21127269	          0.12018364	         -0.07499652	         -0.01651579	          0.00000000	          1.91479496	          0.00000000	          0.00000000	         -1.60667107	          0.00000000	
          1.15600000	       -177.32723079	        906.92837914	          6.07130512	          0.80870794	          0.00000000	          0.06178882	         98.73109473	        231.76611158	        -10.00066423	          0.12284174	         -0.07499512	         -0.01566004	          0.00000000	          2.04236326	          0.00000000	          0.00000000	         -1.45557443	          0.00000000	
          1.16000000	       -210.33312574	        919.86483496	          4.11919102	          0.81366167	          0.00000000	          0.06151921	         84.21114582	        194.30129271	         -9.48807091	          0.12587770	         -0.07499440	         -0.01467030	          0.00000000	          2.05204924	          0.00000000	          0.00000000	         -1.28136939	          0.00000000	
          1.16400000	       -237.95754430	        911.17426388	          3.10232425	          0.81852099	          0.00000000	          0.06103535	         69.93939936	        160.61838151	         -8.73684360	          0.12903674	         -0.07499500	         -0.01356853	          0.00000000	          1.92718719	          0.00000000	          0.00000000	         -1.09099780	          0.00000000	
          1.16800000	       -259.08937702	        890.53439209	          2.73738376	          0.82306939	          0.00000000	          0.06056629	         56.83235962	        131.31046062	         -7.79552425	          0.13198782	         -0.07499500	         -0.01240364	          0.00000000	          1.65970845	          0.00000000	          0.00000000	         -0.89414917	          0.00000000	
          1.17200000	       -273.47181697	        867.39941829	          2.67682909	          0.82703316	          0.00000000	          0.06023879	         45.57560105	        106.36082094	         -6.70083157	          0.13430531	         -0.07499500	         -0.01124903	          0.00000000	          1.25450936	          0.00000000	          0.00000000	         -0.70143181	          0.00000000	
          1.17600000	       -281.94554809	        850.33064691	          2.79204452	          0.83037553	          0.00000000	          0.06006137	         36.36499934	         85.36478432	         -5.46520753	          0.13563475	         -0.07499524	         -0.01018646	          0.00000000	          0.73442010	          0.00000000	          0.00000000	         -0.52239426	          0.00000000	
          1.18000000	       -286.07157506	        845.21098236	          3.20978933	          0.83325976	          0.00000000	          0.05992273	         28.89428282	         67.69118261	         -4.09311148	          0.13591614	         -0.07499640	         -0.00931671	          0.00000000	          0.14368228	          0.00000000	          0.00000000	         -0.36367965	          0.00000000	
          1.18400000	       -287.34371050	        853.75503705	          4.09021723	          0.83568275	          0.00000000	          0.05967324	         22.58566845	         52.63561611	         -2.62210341	          0.13533188	         -0.07499800	         -0.00882296	          0.00000000	         -0.45253052	          0.00000000	          0.00000000	         -0.22791838	          0.00000000	
          1.18800000	       -286.96749615	        873.76117060	          5.23145404	          0.83732672	          0.00000000	          0.05930816	         16.87868897	         39.57246982	         -1.12418125	          0.13377915	         -0.07499800	         -0.00898903	          0.00000000	         -0.97407776	          0.00000000	          0.00000000	         -0.11390505	          0.00000000	
